<svg width="1600" height="1200" viewBox="0 0 1600 1200" fill="none" xmlns="http://www.w3.org/2000/svg">
  <rect width="1600" height="1200" fill="#2F231D"/>
  <rect width="1600" height="1200" fill="url(#paint0_radial_1_2)"/>
  <rect width="1600" height="1200" fill="url(#paint1_linear_1_2)"/>
  <circle cx="1202" cy="222" r="275" fill="#F8E6D7" fill-opacity="0.26"/>
  <circle cx="482" cy="783" r="378" fill="#F6CDBB" fill-opacity="0.2"/>
  <path d="M265 889C453 671 648 562 818 538C1019 510 1154 632 1331 497" stroke="#FFF8F2" stroke-opacity="0.55" stroke-width="3"/>
  <path d="M319 944C492 745 689 647 848 623C1032 595 1167 690 1288 617" stroke="#EFD1BF" stroke-opacity="0.5" stroke-width="2"/>
  <g filter="url(#filter0_f_1_2)">
    <circle cx="721" cy="408" r="149" fill="#FFF7F0" fill-opacity="0.5"/>
  </g>
  <rect x="132" y="137" width="1336" height="926" rx="44" stroke="white" stroke-opacity="0.08"/>
  <text x="800" y="1010" text-anchor="middle" fill="#FFF8F2" fill-opacity="0.88" font-family="Arial, sans-serif" font-size="52" letter-spacing="6">REPLACE WITH YOUR HERO IMAGE OR VIDEO</text>
  <defs>
    <filter id="filter0_f_1_2" x="412" y="99" width="618" height="618" filterUnits="userSpaceOnUse" color-interpolation-filters="sRGB">
      <feFlood flood-opacity="0" result="BackgroundImageFix"/>
      <feBlend mode="normal" in="SourceGraphic" in2="BackgroundImageFix" result="shape"/>
      <feGaussianBlur stdDeviation="80" result="effect1_foregroundBlur_1_2"/>
    </filter>
    <radialGradient id="paint0_radial_1_2" cx="0" cy="0" r="1" gradientUnits="userSpaceOnUse" gradientTransform="translate(303 252) rotate(45.3691) scale(579.557 624.868)">
      <stop stop-color="#FFF7F1" stop-opacity="0.38"/>
      <stop offset="1" stop-color="#FFF7F1" stop-opacity="0"/>
    </radialGradient>
    <linearGradient id="paint1_linear_1_2" x1="800" y1="0" x2="800" y2="1200" gradientUnits="userSpaceOnUse">
      <stop stop-color="#4B372C"/>
      <stop offset="1" stop-color="#211712"/>
    </linearGradient>
  </defs>
</svg>
